<?xml version="1.0" encoding="utf-8"?>
<!-- Generator: Adobe Illustrator 22.1.0, SVG Export Plug-In . SVG Version: 6.00 Build 0)  -->
<svg version="1.1" id="Layer_1" xmlns="http://www.w3.org/2000/svg" xmlns:xlink="http://www.w3.org/1999/xlink" x="0px" y="0px"
	 viewBox="0 0 428.8 337.7" style="enable-background:new 0 0 428.8 337.7;" xml:space="preserve">
<style type="text/css">
	.st0{fill:#4353FF;}
	.st1{fill:none;stroke:#000000;stroke-miterlimit:10;}
	.st2{fill:none;stroke:#000000;stroke-linecap:round;stroke-miterlimit:10;}
	.st3{fill:none;stroke:#000000;stroke-linecap:round;stroke-linejoin:round;stroke-miterlimit:10;}
	.st4{fill:none;stroke:#000000;stroke-linecap:round;stroke-linejoin:round;}
	.st5{fill:none;stroke:#000000;stroke-linecap:round;stroke-linejoin:round;stroke-dasharray:4.6722,5.0785;}
	.st6{fill:none;stroke:#000000;stroke-width:0.9686;stroke-linecap:round;stroke-linejoin:round;stroke-miterlimit:10;stroke-dasharray:5.8117,4.8431;}
	.st7{fill:none;stroke:#000000;stroke-linecap:round;stroke-linejoin:round;stroke-miterlimit:10;stroke-dasharray:5,5;}
	.st8{fill:none;stroke:#000000;stroke-linecap:round;stroke-linejoin:round;stroke-miterlimit:10;stroke-dasharray:5.6523,5;}
	.st9{fill:none;stroke:#141515;stroke-miterlimit:10;}
	.st10{fill:#FFFFFF;}
</style>
<path class="st0" d="M336.2,273.7h-72.1c-2.8,0-5.1,2.3-5.1,5.1v10.6h12.7c1.1,0,1.9,0.9,1.9,1.9v37.1h58v-20.5
	c0-1.1,0.9-1.9,1.9-1.9h7.8v-27.2C341.3,276,339,273.7,336.2,273.7z"/>
<path class="st1" d="M348.9,335.4h-16.2c-0.5,0-1-0.4-1-1V307c0-0.5,0.4-1,1-1h16.2c0.5,0,1,0.4,1,1v27.4
	C349.9,335,349.4,335.4,348.9,335.4z"/>
<path class="st1" d="M272.6,336.9h-27.3c-0.5,0-1-0.4-1-1v-45.4c0-0.5,0.4-1,1-1h27.3c0.5,0,1,0.4,1,1v45.4
	C273.6,336.4,273.2,336.9,272.6,336.9z"/>
<path d="M263.6,331.1h-9.2c-0.2,0-0.3-0.1-0.3-0.3v-1c0-0.2,0.1-0.3,0.3-0.3h9.2c0.2,0,0.3,0.1,0.3,0.3v1
	C263.8,331,263.7,331.1,263.6,331.1z"/>
<circle cx="340.8" cy="330.9" r="1.1"/>
<path class="st1" d="M39,65.9c-11.1,0-13.1,10-10.1,14.6c2.9,4.6,3.6,11.8,3.6,11.8h12.9c0,0,0.7-7.2,3.6-11.8
	C52,75.9,50.1,65.9,39,65.9"/>
<line class="st1" x1="39" y1="92.3" x2="39" y2="86"/>
<line class="st1" x1="34.4" y1="86" x2="43.1" y2="86"/>
<line class="st1" x1="34.8" y1="82.2" x2="42.7" y2="82.2"/>
<rect x="32.9" y="96.2" class="st0" width="11.9" height="6.9"/>
<line class="st2" x1="54.1" y1="62.6" x2="50.3" y2="65.9"/>
<line class="st2" x1="61" y1="76.7" x2="56" y2="76.8"/>
<line class="st2" x1="38.8" y1="55.5" x2="38.8" y2="60.6"/>
<line class="st2" x1="23.2" y1="62.6" x2="27" y2="65.9"/>
<line class="st2" x1="17.4" y1="76.7" x2="22.5" y2="76.8"/>
<path class="st3" d="M145.6,288.7c16.3,0,21.3-4.8,21.3-4.8c11.8-36.5,22.5-108.3,22.5-108.3c7-99-39-130.5-39-130.5l-3-29.5H144
	l-3.2,29.5c0,0-46,31.5-39,130.5c0,0,10.8,71.8,22.5,108.3C124.3,283.9,129.3,288.9,145.6,288.7"/>
<circle class="st0" cx="145.5" cy="10" r="5.6"/>
<path class="st3" d="M140.8,45.2c0,0,4.3,1.4,9.5,0"/>
<path class="st1" d="M145.6,202.2c0,0-5.5-0.5-7.2,10s0.5,77.5,4.8,125h2.5"/>
<path class="st1" d="M145.7,202.2c0,0,5.5-0.5,7.2,10s-0.5,77.5-4.8,125h-2.4"/>
<g>
	<g>
		<line class="st4" x1="145.6" y1="45.8" x2="145.6" y2="48.1"/>
		<line class="st5" x1="145.6" y1="53.2" x2="145.6" y2="323.6"/>
		<line class="st4" x1="145.6" y1="326.2" x2="145.6" y2="328.5"/>
	</g>
</g>
<ellipse class="st6" cx="145.6" cy="74.2" rx="26.5" ry="7"/>
<ellipse class="st7" cx="145.2" cy="179.5" rx="43.2" ry="11.5"/>
<line class="st7" x1="104" y1="118.9" x2="187.2" y2="118.9"/>
<circle class="st8" cx="340.2" cy="154.1" r="88.1"/>
<path class="st1" d="M106.2,202.2c0,0-51.1,5.3-12.1,133.3h5.3c0,0-8.6-73.3,14.3-93.3L106.2,202.2z"/>
<line class="st3" x1="107.6" y1="209.5" x2="82.5" y2="229.1"/>
<line class="st3" x1="109.1" y1="217.7" x2="80.2" y2="241"/>
<line class="st3" x1="110.8" y1="226.7" x2="79.5" y2="253"/>
<line class="st3" x1="112.6" y1="235.8" x2="79.7" y2="263.6"/>
<line class="st3" x1="106.1" y1="253" x2="80.6" y2="274.4"/>
<line class="st3" x1="101.1" y1="268.5" x2="82" y2="284.4"/>
<line class="st3" x1="99.2" y1="280.4" x2="83.5" y2="293.4"/>
<line class="st3" x1="98.2" y1="291.8" x2="85.4" y2="302.5"/>
<line class="st3" x1="97.9" y1="303.6" x2="87.5" y2="311.6"/>
<line class="st3" x1="98" y1="314.1" x2="89.9" y2="321"/>
<line class="st3" x1="98.5" y1="324" x2="92.2" y2="329.2"/>
<path class="st1" d="M186,201.7c0,0,51.1,5.3,12.1,133.3h-5.4c0,0,8.6-73.3-14.3-93.3L186,201.7z"/>
<line class="st3" x1="201.7" y1="322" x2="194.5" y2="325.9"/>
<line class="st3" x1="194.1" y1="314.7" x2="206" y2="305.4"/>
<line class="st3" x1="194.3" y1="303.9" x2="208.7" y2="292.4"/>
<line class="st3" x1="194.1" y1="293.3" x2="210.8" y2="279.9"/>
<line class="st3" x1="193.4" y1="283.6" x2="212.1" y2="268.3"/>
<line class="st3" x1="192.2" y1="273.7" x2="212.7" y2="256.5"/>
<line class="st3" x1="190.3" y1="264.8" x2="212.4" y2="245.8"/>
<line class="st3" x1="187.7" y1="256.1" x2="211.3" y2="235.9"/>
<line class="st3" x1="184" y1="248.4" x2="209.1" y2="226.8"/>
<line class="st3" x1="178.4" y1="241.6" x2="205.8" y2="218.5"/>
<line class="st3" x1="180.7" y1="229.3" x2="201.4" y2="211.6"/>
<line class="st3" x1="183.2" y1="216.2" x2="195.1" y2="205.6"/>
<circle class="st0" cx="146.7" cy="119.7" r="27.2"/>
<circle class="st3" cx="340.2" cy="154.6" r="57.3"/>
<circle class="st0" cx="340.2" cy="154.6" r="26.3"/>
<path class="st1" d="M199.7,57.7c0,0,2.9,21.5,23.4,28.7"/>
<path class="st1" d="M287.1,22.9c0,0-2.9-17.2-19.6-22.4"/>
<circle class="st3" cx="38.8" cy="79.1" r="38.3"/>
<ellipse class="st3" cx="370" cy="105.4" rx="15" ry="15"/>
<ellipse transform="matrix(0.9997 -2.468249e-02 2.468249e-02 0.9997 -2.4834 9.1622)" class="st3" cx="369.9" cy="105.2" rx="17.9" ry="3.6"/>
<ellipse class="st3" cx="320.5" cy="172.7" rx="12.1" ry="12.1"/>
<ellipse class="st3" cx="396.2" cy="221.3" rx="16.6" ry="16.6"/>
<ellipse transform="matrix(0.7071 -0.7071 0.7071 0.7071 -40.3743 345.1328)" class="st3" cx="396.4" cy="221.3" rx="4.1" ry="20.5"/>
<g>
	<path class="st9" d="M266.6,14.2c1.5,0.9,2.8,2.2,3.7,3.6l2.8-1.2c0.9,1.4,1.6,3,2,4.6l-2.8,1.2c0.4,1.7,0.4,3.4,0.1,5.2l2.8,1.1
		c-0.2,0.8-0.4,1.6-0.7,2.4s-0.7,1.6-1.1,2.3l-2.8-1.1c-0.9,1.5-2.2,2.8-3.6,3.7l1.2,2.8c-1.4,0.9-3,1.6-4.6,2l-1.2-2.8
		c-1.7,0.4-3.4,0.4-5.2,0.1l-1.1,2.8c-0.8-0.2-1.6-0.4-2.4-0.7s-1.6-0.7-2.3-1.1l1.1-2.8c-1.5-0.9-2.7-2.2-3.7-3.6l-2.8,1.2
		c-0.9-1.4-1.6-3-2-4.6l2.8-1.2c-0.4-1.7-0.4-3.4-0.1-5.2l-2.8-1.1c0.2-0.8,0.4-1.6,0.7-2.4c0.3-0.8,0.7-1.6,1.1-2.3l2.8,1.1
		c0.9-1.5,2.2-2.7,3.6-3.7l-1.2-2.8c1.4-0.9,3-1.6,4.6-2l1.2,2.8c1.7-0.4,3.4-0.4,5.2-0.1l1.1-2.8c0.8,0.2,1.6,0.4,2.4,0.7
		s1.6,0.7,2.3,1.1L266.6,14.2z"/>
	<path class="st9" d="M256.8,32.6c4,1.6,8.6-0.4,10.2-4.5c1.6-4-0.4-8.6-4.5-10.2c-4.1-1.6-8.6,0.4-10.2,4.5S252.7,31,256.8,32.6
		L256.8,32.6z"/>
</g>
<path class="st0" d="M234.6,36.5c2.3,0.4,4.4,1.3,6.2,2.6l2.8-2.8c1.8,1.3,3.4,2.9,4.7,4.7l-2.8,2.8c1.2,1.8,2.1,4,2.6,6.2h4
	c0.2,1.1,0.3,2.2,0.3,3.3c0,1.1-0.1,2.2-0.3,3.3h-4c-0.4,2.3-1.3,4.4-2.6,6.2l2.8,2.8c-1.3,1.8-2.9,3.4-4.7,4.7l-2.8-2.8
	c-1.8,1.2-3.9,2.1-6.2,2.6v4c-1.1,0.2-2.2,0.3-3.3,0.3c-1.1,0-2.2-0.1-3.3-0.3v-4c-2.3-0.4-4.4-1.3-6.2-2.6l-2.8,2.8
	c-1.8-1.3-3.4-2.9-4.7-4.7l2.8-2.8c-1.2-1.8-2.1-3.9-2.6-6.2h-4c-0.2-1.1-0.3-2.2-0.3-3.3c0-1.1,0.1-2.2,0.3-3.3h4
	c0.4-2.3,1.3-4.4,2.6-6.2l-2.8-2.8c1.3-1.8,2.9-3.4,4.7-4.7l2.8,2.8c1.8-1.2,3.9-2.1,6.2-2.6v-4c1.1-0.2,2.2-0.3,3.3-0.3
	c1.1,0,2.2,0.1,3.3,0.3V36.5z"/>
<path class="st10" d="M231.3,63.5c5.6,0,10.2-4.6,10.2-10.2s-4.6-10.2-10.2-10.2s-10.2,4.6-10.2,10.2
	C221,58.9,225.6,63.5,231.3,63.5L231.3,63.5z"/>
<circle class="st10" cx="146.5" cy="119.7" r="20.2"/>
</svg>
