<svg version="1.1" id="svg5" xmlns="http://www.w3.org/2000/svg" xmlns:xlink="http://www.w3.org/1999/xlink" x="0px" y="0px" width="300px" height="300px" viewBox="0 0 150 150" enable-background="new 0 0 150 150" xml:space="preserve">
					<path class="path" fill="#f8f8f8" stroke="#000" stroke-width="1" stroke-miterlimit="10" d="M148.488,76.006c0,40.589-32.905,73.494-73.494,73.494 C34.404,149.5,1.5,116.595,1.5,76.006c0-40.589,32.904-73.494,73.494-73.494C115.583,2.512,148.488,35.417,148.488,76.006z M128.099,126.858c-13.38-13.981-32.226-22.688-53.104-22.688c-20.875,0-39.716,8.702-53.095,22.677 M19.305,27.405 c13.477,15.636,33.427,25.534,55.689,25.534c22.067,0,41.865-9.727,55.336-25.128 M74.994,2.512 c-22.123,0-40.056,32.904-40.056,73.494c0,40.589,17.934,73.494,40.056,73.494c22.122,0,40.056-32.905,40.056-73.494 C115.05,35.416,97.116,2.512,74.994,2.512z M1.679,78.867h146.988 M76.066,149.322V2.333"></path>
				</svg>