<svg version="1.1" id="svg3" xmlns="http://www.w3.org/2000/svg" xmlns:xlink="http://www.w3.org/1999/xlink" x="0px" y="0px" width="250px" height="300px" viewBox="0 0 130 150" enable-background="new 0 0 150 150" xml:space="preserve">
				<path class="path" fill="#f8f8f8" stroke="#000" stroke-width="1" stroke-miterlimit="10" d="M86.642,123.45h-4.232v12.698h-3.628v12.578H48.667V136.27h-4.112 v-13.062h-4.217v-22.764c-12.988-7.89-21.665-22.172-21.665-38.479c0-24.847,20.143-44.99,44.99-44.99 c24.848,0,44.989,20.143,44.989,44.99c0,16.306-8.675,30.585-21.661,38.477L86.642,123.45z M40.338,110.751h46.497 M44.555,123.208 h39.185 M48.667,136.27h30.84 M73.016,110.751l4.676-40.515l-7.578,6.45l-6.528-6.45l-6.373,6.45l-8.547-6.45l5.966,40.515 M63.65,1 v8.564 M1,56.777h8.564 M118.159,56.777h8.563 M102.662,14.662l-6.055,6.057 M22.132,95.146l-6.057,6.058 M23.785,14.662 l6.057,6.057 M105.083,95.961l6.057,6.056"></path>
			</svg>