<svg version="1.1" id="Layer_1" xmlns="http://www.w3.org/2000/svg" xmlns:xlink="http://www.w3.org/1999/xlink" x="0px" y="0px" width="48px" height="48px" viewBox="0 0 500 500" enable-background="new 0 0 500 500" xml:space="preserve">
	<path fill-rule="evenodd" clip-rule="evenodd" fill="#191819" d="M250.841,496.992c135.974,0,246.876-110.902,246.876-246.875c0-135.974-110.902-246.875-246.876-246.875S3.965,114.143,3.965,250.117C3.965,386.09,114.867,496.992,250.841,496.992z"></path>
	<path fill="#FFFFFF" d="M89.617,203.092l72.439,70.639l0.108,0.107l36.769,36.791c3.371,3.374,7.831,5.065,12.294,5.065c4.463,0.004,8.938-1.694,12.334-5.091l29.961-29.939l-36.357-39.812l13.804-12.561l35.77,39.166l101.815-101.751l13.146,13.219L279.32,281.237l27.141,29.72l-0.019,0.019c0.229,0.251-0.118-0.154,0.485,0.445v0.037c3.016,3.019,7.104,4.47,11.268,4.444c4.29-0.024,8.639-1.63,12.019-4.716l0.548-0.545h0.037l81.117-81.065l13.146,13.219l-81.1,81.047l0.019,0.019c-0.231,0.229-0.634,0.605-1.206,1.125c-6.832,6.242-15.699,9.486-24.508,9.539c-8.924,0.053-17.813-3.183-24.539-9.903l-0.019,0.019c-0.103-0.103-0.254-0.291-1.015-1.123h-0.037l-26.55-29.073l-29.401,29.38c-7.002,6.999-16.241,10.497-25.479,10.494c-9.242-0.004-18.496-3.517-25.514-10.544l-36.66-36.682L76.62,216.457L89.617,203.092z"></path>
</svg>